<?xml version="1.0" standalone="no"?>
<!DOCTYPE svg PUBLIC "-//W3C//DTD SVG 20010904//EN"
 "http://www.w3.org/TR/2001/REC-SVG-20010904/DTD/svg10.dtd">
<svg version="1.0" xmlns="http://www.w3.org/2000/svg"
 width="13355.000000pt" height="8255.000000pt" viewBox="0 0 13355.000000 8255.000000"
 preserveAspectRatio="xMidYMid meet">

<g transform="translate(0.000000,8255.000000) scale(0.100000,-0.100000)"
fill="#000000" stroke="none">
<path d="M86110 82539 c-3328 -143 -7032 -1656 -10910 -4458 -1227 -886 -2534
-1964 -3578 -2950 l-153 -144 -247 37 c-906 135 -1902 231 -2867 276 -919 43
-2135 43 -3040 0 -1036 -49 -2094 -153 -3014 -295 -123 -19 -231 -35 -241 -35
-9 0 -88 66 -176 148 -1077 996 -2316 2002 -3560 2889 -2221 1584 -4386 2750
-6484 3493 -1512 535 -2953 832 -4368 901 -277 13 -1029 7 -1267 -10 -442 -33
-872 -89 -1284 -166 -383 -72 -408 -86 -651 -370 -954 -1112 -1942 -2712
-2666 -4318 -1404 -3111 -2011 -6439 -1798 -9857 235 -3785 1464 -7596 3662
-11359 85 -146 166 -283 179 -304 l24 -39 -61 -206 c-141 -473 -227 -702 -468
-1252 -558 -1272 -1167 -2470 -1814 -3568 -66 -112 -144 -253 -173 -315 -118
-249 -175 -509 -175 -797 0 -221 28 -392 100 -616 347 -1071 1126 -2239 2263
-3398 l195 -198 -79 -102 c-155 -198 -321 -447 -458 -686 -99 -171 -272 -524
-315 -643 -145 -392 -169 -833 -66 -1233 124 -479 610 -1316 1139 -1958 207
-252 338 -395 635 -692 380 -379 663 -629 1082 -955 514 -401 1195 -853 1798
-1194 76 -43 141 -85 144 -93 18 -48 -192 -1279 -339 -1987 -468 -2250 -1146
-4351 -2040 -6318 -339 -745 -518 -1214 -708 -1857 -394 -1334 -592 -2688
-637 -4342 l-7 -246 -74 -104 c-590 -812 -952 -1660 -1082 -2528 -40 -270 -46
-368 -46 -735 0 -448 24 -687 111 -1092 100 -468 328 -1103 499 -1391 115
-192 292 -401 467 -548 l88 -74 -3552 -3 c-3292 -3 -3558 -4 -3620 -20 -182
-45 -350 -140 -478 -268 -173 -172 -264 -367 -290 -620 -15 -147 -14 -14291 1
-14414 51 -416 360 -786 741 -888 l83 -22 5660 0 5660 0 90 28 c165 52 291
132 426 274 161 169 258 362 289 578 8 58 10 403 8 1225 l-4 1145 -22 84 c-97
363 -338 618 -688 728 l-89 28 -3540 5 -3540 5 -3 1037 -2 1038 3352 3 c3152
2 3357 4 3418 20 88 23 163 54 235 96 235 135 434 395 507 661 l23 85 0 1190
0 1190 -28 100 c-54 196 -166 374 -319 504 -117 101 -230 161 -388 209 -51 16
-309 17 -3425 22 l-3370 5 -3 947 -2 948 3532 2 3533 3 75 23 c164 51 323 154
454 293 148 157 237 323 277 514 18 85 19 154 19 1161 l0 1071 63 12 c285 55
769 211 1072 346 6 3 54 -26 108 -65 276 -194 665 -394 999 -511 l98 -34 0
-1205 c0 -751 4 -1236 10 -1286 30 -239 120 -417 305 -599 138 -137 258 -206
450 -258 l80 -22 1958 -2 1957 -3 0 -58 c0 -31 -36 -2422 -81 -5312 -65 -4135
-80 -5276 -71 -5355 45 -410 296 -725 669 -842 l88 -28 1670 -3 c1147 -2 1692
1 1739 8 183 28 327 102 467 240 148 146 232 289 287 488 l27 97 3 5382 2
5383 1928 2 1927 3 79 23 c178 52 323 141 462 284 137 141 209 257 261 425
l28 88 0 1515 c0 1419 -1 1519 -18 1580 -23 85 -87 218 -141 294 -55 77 -213
229 -289 280 -84 55 -212 112 -308 138 l-84 23 -1881 2 -1881 3 175 173 c285
282 642 678 802 892 135 180 293 431 379 603 24 48 36 62 49 58 9 -3 141 -32
292 -65 2898 -632 5747 -678 8573 -140 201 38 573 115 608 125 12 3 35 -28 89
-123 177 -311 342 -532 681 -909 l117 -130 -166 -28 c-668 -109 -1336 -327
-1897 -620 -1029 -538 -1791 -1283 -2291 -2241 -467 -895 -630 -1895 -488
-3000 101 -793 330 -1472 668 -1985 274 -414 647 -773 1153 -1106 695 -459
1591 -812 2828 -1114 424 -104 695 -160 850 -176 481 -50 907 -178 1210 -364
193 -118 409 -313 538 -485 88 -117 180 -302 214 -430 24 -89 26 -118 27 -270
0 -196 -15 -269 -84 -414 -54 -111 -111 -190 -206 -282 -227 -219 -486 -313
-927 -339 -855 -49 -1641 89 -2292 404 -244 118 -328 172 -1035 657 -738 506
-1018 678 -1420 873 -491 238 -766 221 -1050 -64 -128 -127 -326 -377 -530
-665 -35 -49 -265 -352 -512 -673 -560 -726 -630 -829 -731 -1077 -72 -177
-91 -267 -91 -425 0 -145 15 -221 70 -353 114 -272 401 -584 809 -882 279
-204 765 -519 1135 -737 2073 -1221 4191 -1731 6240 -1502 1000 111 1937 417
2801 912 1097 630 1920 1465 2467 2502 520 986 670 2111 417 3122 -170 678
-519 1309 -1050 1898 -514 570 -1115 1020 -1865 1395 -955 479 -2037 802
-3485 1040 -439 73 -614 123 -870 250 -187 93 -310 180 -445 315 -283 284
-411 588 -397 945 12 305 111 524 341 750 167 165 337 269 561 344 339 113
784 133 1245 55 577 -97 1243 -360 1928 -761 81 -47 311 -188 512 -313 456
-284 625 -383 815 -480 377 -193 545 -165 889 147 122 110 919 953 1143 1210
460 525 617 785 631 1043 9 188 -72 372 -248 564 -36 39 -112 124 -170 189
-57 66 -162 175 -234 243 -72 68 -125 124 -119 124 6 0 58 -11 115 -24 506
-120 1008 -178 1528 -178 530 1 957 57 1428 188 l22 6 0 -7019 c0 -4862 3
-7038 11 -7079 35 -203 142 -390 315 -554 129 -123 255 -198 411 -247 l88 -28
1840 0 1840 0 85 23 c157 41 294 119 420 239 126 118 231 278 280 423 52 152
50 48 50 2973 l0 2727 3000 0 3000 0 2 -2777 3 -2778 22 -76 c96 -337 392
-634 728 -731 l80 -23 1840 0 c2043 0 1876 -5 2052 65 213 85 424 294 512 507
39 94 59 178 72 303 8 77 9 2020 5 7365 -7 7223 -7 7261 -27 7360 -54 269
-212 481 -441 594 -123 60 -225 87 -379 101 -155 13 -3446 14 -3591 0 -416
-40 -743 -314 -850 -712 l-23 -83 -2 -2552 -3 -2553 -3000 0 -3000 0 -3 2548
-2 2547 -22 80 c-12 44 -20 81 -19 83 2 1 70 -3 152 -9 309 -23 675 13 1018
101 210 53 382 117 581 215 524 258 894 622 1111 1095 262 572 427 1175 496
1805 18 162 18 799 0 960 -108 991 -463 1880 -1102 2765 l-98 136 -6 229 c-37
1314 -153 2314 -391 3390 -213 957 -491 1792 -892 2675 -344 757 -553 1258
-811 1950 -632 1691 -1138 3561 -1466 5415 -91 515 -178 1086 -167 1096 3 4
113 68 243 143 2135 1222 3659 2685 4438 4261 71 143 144 301 164 351 137 356
170 751 95 1144 -36 185 -101 361 -229 618 -207 416 -430 768 -689 1089 l-34
42 216 223 c430 446 708 769 1027 1193 561 747 932 1415 1170 2112 132 387
160 715 90 1061 -52 252 -121 413 -320 747 -705 1185 -1400 2553 -1965 3870
-139 323 -207 511 -326 896 l-70 229 142 242 c1131 1940 2021 3930 2637 5898
1127 3597 1372 7202 726 10660 -533 2855 -1712 5668 -3353 8000 -404 574 -961
1264 -1115 1380 -97 74 -233 119 -356 120 -30 0 -103 9 -162 20 -704 128
-1562 183 -2338 149z m309 -1133 c-2 -3 -76 -53 -164 -112 -892 -598 -1751
-1405 -2512 -2361 -1376 -1726 -2469 -3982 -3228 -6663 -46 -162 -107 -385
-136 -495 -29 -110 -53 -201 -55 -203 -1 -2 -128 79 -281 181 -912 605 -1790
1089 -2797 1544 -1285 580 -2752 1066 -4198 1389 -165 37 -167 38 -150 57 46
52 655 580 1007 873 1392 1160 2880 2223 4285 3061 2788 1662 5420 2581 7770
2713 287 16 465 22 459 16z m-38679 -201 c1689 -127 3443 -616 5360 -1496 265
-121 974 -474 1245 -620 1824 -977 3676 -2245 5475 -3745 179 -149 402 -338
495 -419 94 -81 194 -168 223 -194 l52 -45 -82 -19 c-46 -10 -227 -54 -403
-97 -2440 -598 -4645 -1555 -6621 -2876 l-272 -182 -22 87 c-47 180 -212 747
-294 1011 -831 2677 -2018 4925 -3481 6595 -280 319 -742 788 -1025 1039 -378
336 -760 633 -1125 876 -77 51 -144 97 -150 103 -13 12 356 2 625 -18z m40788
-246 c52 -63 178 -226 281 -364 1299 -1735 2345 -3833 2990 -5995 430 -1444
689 -2888 786 -4380 53 -832 46 -1917 -20 -2760 -218 -2797 -1006 -5574 -2397
-8455 -208 -430 -683 -1345 -699 -1345 -3 0 -18 44 -33 98 -141 486 -496 1566
-718 2182 -627 1735 -1333 3282 -2150 4705 -284 495 -574 961 -892 1435 l-164
245 24 40 c265 437 427 962 475 1543 15 182 6 668 -15 852 -70 591 -222 1158
-466 1735 -38 88 -87 198 -110 245 l-41 85 33 25 c799 617 1288 1481 1430
2530 31 226 33 769 5 980 -23 168 -60 354 -88 443 -45 142 -166 280 -304 347
-151 75 -677 180 -1105 222 -208 20 -802 17 -1014 -6 -517 -54 -1011 -171
-1481 -347 -71 -27 -132 -48 -136 -47 -16 6 320 701 508 1052 932 1742 2046
3103 3328 4066 410 308 1088 678 1690 921 94 38 175 68 180 66 6 -2 52 -55
103 -118z m-43281 -133 c356 -144 695 -305 993 -473 261 -148 727 -477 1045
-738 469 -384 998 -916 1422 -1427 645 -779 1215 -1655 1741 -2678 116 -226
335 -681 330 -685 -2 -1 -76 24 -165 57 -1054 378 -2135 447 -3191 202 -330
-76 -406 -108 -512 -214 -83 -83 -132 -175 -165 -311 -105 -437 -112 -1022
-19 -1529 174 -943 660 -1736 1422 -2320 l33 -25 -64 -140 c-204 -447 -369
-955 -461 -1420 -169 -858 -127 -1656 125 -2333 46 -125 171 -392 233 -502
l26 -45 -165 -249 c-1508 -2271 -2691 -4897 -3650 -8101 -52 -176 -97 -324
-98 -328 -10 -33 -671 1248 -927 1798 -1414 3029 -2146 5905 -2261 8880 -13
338 -7 1367 10 1660 70 1196 203 2175 447 3280 546 2469 1611 4902 3032 6930
207 295 587 795 604 795 4 0 101 -38 215 -84z m40123 -6651 c162 -20 290 -41
299 -50 3 -4 6 -127 5 -273 0 -224 -4 -290 -22 -411 -109 -701 -455 -1274
-1021 -1692 l-75 -56 -131 63 c-148 71 -331 135 -454 158 -106 20 -295 21
-381 1 -54 -13 -116 -32 -128 -40 -1 -1 75 -123 169 -271 268 -420 367 -590
374 -643 12 -92 46 -179 121 -311 336 -594 579 -1265 669 -1845 68 -447 57
-864 -34 -1220 -42 -164 -42 -165 -50 -165 -4 0 -48 51 -97 112 -486 613 -935
1118 -1503 1691 -552 556 -998 963 -1578 1435 l-211 172 14 63 c27 116 152
601 209 807 156 570 451 1512 489 1559 6 8 49 39 96 69 780 505 1556 785 2390
862 154 14 694 5 850 -15z m-17715 -35 c1799 -49 3386 -230 4959 -566 2727
-582 5165 -1622 7253 -3095 2659 -1876 4781 -4441 6399 -7734 856 -1742 1510
-3509 2274 -6140 403 -1389 476 -1615 663 -2050 607 -1414 1299 -2783 2032
-4020 82 -137 159 -272 171 -300 66 -142 72 -353 14 -530 -292 -903 -990
-1942 -1978 -2947 -128 -130 -304 -301 -390 -380 -220 -200 -263 -246 -304
-324 -51 -96 -70 -172 -71 -273 -1 -105 14 -173 61 -271 30 -64 57 -97 181
-225 81 -82 176 -184 212 -225 231 -264 467 -624 644 -985 95 -195 121 -269
136 -402 23 -194 -15 -344 -166 -648 -641 -1292 -1895 -2514 -3685 -3589 -801
-481 -1775 -961 -2595 -1278 -121 -47 -237 -91 -258 -98 -20 -6 -103 -55 -185
-107 -2161 -1401 -4358 -2451 -6877 -3288 -2834 -943 -5940 -1521 -8730 -1626
-340 -13 -1186 -7 -1515 11 -3479 185 -7062 978 -10310 2282 -1660 667 -3304
1506 -4705 2401 -349 223 -357 228 -570 307 -747 280 -1587 673 -2345 1098
-1399 784 -2519 1674 -3295 2617 -197 240 -424 561 -580 825 -106 178 -280
529 -317 637 -30 93 -32 105 -32 253 -1 203 14 255 149 528 236 474 484 827
822 1170 74 74 149 160 167 191 128 211 109 491 -47 678 -23 27 -105 106 -181
174 -390 347 -866 847 -1228 1290 -287 352 -591 788 -784 1124 -219 382 -436
885 -473 1099 -21 118 -6 261 39 376 12 30 75 145 140 255 647 1097 1252 2283
1826 3577 380 858 430 1001 824 2383 430 1507 669 2268 1064 3389 214 606 560
1474 846 2116 1489 3351 3459 6000 5935 7981 1296 1037 2729 1891 4287 2555
2572 1095 5528 1694 8813 1783 429 12 1300 12 1710 1z m-18690 -70 c782 -57
1534 -305 2275 -750 102 -61 192 -119 201 -128 24 -25 247 -684 383 -1132 130
-430 356 -1255 356 -1301 0 -10 -24 -37 -52 -61 -29 -24 -145 -121 -258 -214
-442 -367 -783 -677 -1229 -1119 -632 -626 -1144 -1197 -1671 -1862 -79 -101
-147 -183 -151 -183 -19 0 -82 291 -105 485 -20 173 -14 596 10 775 86 625
322 1315 655 1915 84 152 111 215 126 295 10 48 113 228 352 611 111 180 203
331 203 337 0 6 -24 18 -52 27 -257 76 -574 21 -934 -164 l-118 -60 -70 51
c-587 423 -952 1035 -1051 1758 -18 135 -31 486 -21 582 l7 66 87 16 c322 58
729 80 1057 56z m35910 -36642 c3 -18 28 -170 56 -338 440 -2656 1268 -5406
2324 -7710 254 -555 410 -942 555 -1379 264 -797 460 -1679 574 -2586 31 -248
66 -575 66 -621 l0 -35 -97 76 c-649 506 -1363 931 -2003 1192 -221 91 -365
138 -730 242 -2135 610 -4213 862 -6095 741 -1765 -114 -3322 -522 -4755
-1246 -708 -357 -1229 -701 -1686 -1111 -66 -59 -159 -141 -207 -181 -112 -96
-305 -295 -436 -452 -609 -726 -1069 -1657 -1266 -2560 -80 -364 -110 -682
-102 -1083 5 -293 17 -421 63 -675 14 -79 22 -147 18 -152 -12 -11 -339 -138
-524 -203 -1307 -464 -2554 -675 -3850 -654 -394 7 -549 16 -911 52 -1075 107
-2122 371 -3252 818 l-209 82 6 40 c3 22 14 101 25 175 31 209 41 355 41 610
0 336 -26 602 -91 922 -207 1030 -785 2134 -1507 2879 -68 70 -162 160 -209
201 -48 40 -141 122 -207 182 -448 403 -970 747 -1671 1101 -675 341 -1305
589 -2005 789 -2139 610 -4562 656 -7170 136 -892 -177 -1927 -454 -2390 -640
-629 -251 -1373 -691 -2009 -1187 -73 -57 -134 -103 -135 -101 -4 5 43 454 69
663 154 1213 447 2355 860 3355 40 96 130 301 200 455 731 1605 1256 3063
1719 4770 278 1026 567 2371 706 3285 13 80 26 148 29 153 4 4 68 -20 142 -54
313 -143 707 -306 1022 -425 156 -58 184 -73 395 -207 1520 -966 3103 -1781
4837 -2490 3409 -1393 7250 -2242 10840 -2397 314 -14 1446 -14 1773 0 2613
109 5451 610 8122 1435 2761 852 5331 2036 7642 3521 236 151 243 155 451 235
243 93 581 235 807 337 85 39 158 71 162 71 4 1 10 -14 13 -31z m-31240
-10988 c1667 -67 3168 -397 4485 -985 771 -344 1497 -790 1980 -1215 41 -36
109 -92 150 -125 100 -80 303 -284 424 -425 426 -499 792 -1146 1000 -1772
393 -1177 264 -2290 -374 -3243 -147 -219 -386 -498 -705 -824 -1077 -1098
-2161 -1687 -3308 -1797 -187 -18 -600 -15 -767 6 -478 58 -1003 216 -1420
425 -83 42 -92 49 -150 130 -392 543 -617 1221 -572 1727 28 311 131 646 312
1008 173 347 364 633 651 974 38 45 40 45 -101 -37 -638 -376 -1065 -860
-1243 -1412 -36 -112 -63 -222 -83 -350 -27 -163 -25 -492 4 -680 63 -407 222
-833 462 -1235 44 -74 80 -137 80 -141 0 -7 -241 -76 -385 -109 -808 -189
-1558 -228 -2255 -119 -627 99 -1212 336 -1682 682 -95 71 -98 74 -158 184
-117 213 -219 478 -279 718 -64 258 -86 457 -78 714 6 194 18 285 66 486 122
502 436 1155 847 1758 52 75 91 137 88 137 -13 0 -238 -163 -359 -259 -138
-109 -430 -397 -529 -521 -195 -245 -373 -569 -465 -846 -57 -170 -104 -391
-122 -568 -17 -170 -7 -534 20 -706 50 -326 172 -714 312 -991 32 -64 38 -84
27 -90 -35 -22 -363 -136 -528 -184 -1037 -299 -1882 -213 -2458 250 -87 70
-143 141 -263 335 -406 652 -550 1371 -424 2116 87 514 300 1038 623 1529 98
150 196 284 278 380 65 77 57 78 -53 4 -321 -216 -613 -496 -805 -774 -245
-354 -392 -758 -443 -1216 -17 -155 -20 -492 -5 -654 44 -480 178 -986 391
-1477 32 -76 59 -142 59 -147 0 -30 -530 -35 -725 -7 -691 99 -1237 398 -1527
836 -88 134 -209 407 -309 698 -268 785 -327 1539 -178 2286 276 1386 1260
2718 2789 3773 524 362 1144 692 1653 880 156 57 651 198 1062 301 1360 343
2664 533 3940 575 223 8 830 6 1050 -3z m27735 -14 c1387 -85 2731 -319 4165
-726 462 -132 676 -215 1110 -435 1486 -751 2736 -1934 3354 -3175 565 -1135
641 -2266 231 -3463 -62 -182 -141 -376 -215 -531 -253 -527 -839 -890 -1620
-1002 -195 -28 -725 -23 -725 7 0 5 27 71 59 147 189 435 318 895 378 1342 28
209 25 704 -5 895 -66 422 -199 768 -420 1095 -192 284 -486 568 -815 789
-110 74 -118 73 -53 -4 193 -227 401 -551 558 -870 366 -745 473 -1481 318
-2200 -49 -229 -181 -571 -306 -798 -144 -260 -252 -407 -361 -495 -579 -461
-1417 -545 -2453 -247 -165 48 -493 162 -528 184 -11 6 -5 26 27 90 140 277
262 665 312 991 27 172 37 536 20 706 -18 177 -65 398 -122 568 -92 277 -270
601 -465 846 -98 123 -390 410 -529 521 -120 96 -346 259 -359 259 -3 0 36
-62 88 -137 513 -753 845 -1517 907 -2091 15 -140 7 -444 -16 -592 -49 -326
-176 -703 -336 -995 -59 -108 -62 -111 -157 -182 -859 -633 -2026 -870 -3341
-677 -170 25 -417 72 -596 114 -147 34 -385 102 -385 109 0 4 32 60 71 125 87
146 192 351 252 494 395 942 311 1796 -247 2489 -213 264 -558 544 -931 753
l-60 34 48 -57 c116 -140 138 -168 209 -262 298 -399 545 -875 658 -1273 120
-423 116 -773 -15 -1206 -93 -308 -278 -679 -475 -951 -58 -81 -67 -88 -150
-130 -314 -158 -743 -304 -1100 -375 -326 -64 -762 -87 -1087 -56 -1021 98
-1998 580 -2967 1464 -293 269 -756 762 -929 992 -811 1079 -933 2393 -352
3779 204 485 523 1004 861 1401 118 139 322 343 424 425 41 33 109 89 150 125
483 425 1209 871 1980 1215 1305 583 2794 912 4455 985 284 12 1188 4 1485
-14z"/>
<path d="M58050 57423 c-570 -42 -1106 -299 -1555 -748 -603 -601 -981 -1455
-1091 -2460 -24 -220 -24 -706 0 -929 120 -1127 605 -2074 1341 -2621 501
-373 1088 -528 1659 -439 500 78 973 330 1376 734 938 940 1331 2543 980 3998
-144 594 -398 1118 -747 1539 -181 219 -466 469 -685 601 -389 235 -863 356
-1278 325z m990 -1942 c189 -65 357 -223 467 -441 135 -267 162 -657 66 -965
-109 -350 -351 -600 -636 -659 -96 -20 -148 -20 -244 0 -229 47 -412 202 -540
459 -85 167 -125 352 -126 565 0 446 210 844 528 1001 119 58 171 69 305 65
86 -2 132 -9 180 -25z"/>
<path d="M76485 55954 c-755 -61 -1314 -200 -2005 -498 -309 -134 -667 -338
-970 -554 -235 -167 -273 -196 -430 -335 -264 -234 -420 -393 -603 -612 -225
-268 -566 -753 -607 -861 -97 -256 -41 -515 150 -706 176 -174 432 -232 663
-150 45 17 141 51 212 77 208 75 555 160 837 204 573 91 1167 88 1753 -9 173
-29 524 -110 650 -149 266 -85 410 -135 604 -213 123 -49 247 -95 276 -102
101 -27 200 13 252 101 38 66 40 158 3 220 -30 50 -160 170 -361 332 -284 230
-492 363 -829 532 -528 264 -1124 428 -1757 484 -92 8 -170 15 -172 15 -2 0
68 57 154 126 369 296 906 623 1435 874 571 270 1090 453 2005 705 124 35 197
160 161 278 -20 68 -60 116 -120 143 -52 23 -271 64 -461 85 -98 11 -741 20
-840 13z"/>
<path d="M66525 51180 c-773 -52 -1449 -168 -1951 -336 -215 -71 -308 -126
-421 -248 -192 -205 -263 -497 -189 -775 40 -146 187 -459 306 -649 146 -232
369 -484 570 -644 339 -270 756 -457 1195 -537 66 -13 130 -24 143 -27 12 -2
22 -11 22 -18 0 -24 -87 -306 -133 -431 -227 -617 -553 -1083 -982 -1405 -278
-208 -618 -364 -985 -453 -247 -60 -469 -86 -795 -94 -715 -16 -1199 105
-1614 403 -128 92 -359 322 -457 456 -204 277 -383 648 -524 1083 -49 153
-140 492 -176 659 -26 122 -93 178 -190 160 -67 -12 -100 -53 -138 -172 -41
-129 -79 -295 -103 -457 -26 -173 -26 -690 0 -855 52 -334 130 -591 257 -855
218 -452 556 -826 992 -1097 82 -51 98 -66 103 -92 19 -95 116 -430 180 -621
543 -1636 1518 -2893 2754 -3548 541 -288 1102 -464 1733 -547 556 -72 1168
-65 1738 21 1694 256 3001 1221 3857 2849 310 589 587 1385 715 2054 l23 119
84 60 c298 211 515 430 701 707 427 636 567 1490 375 2300 -43 181 -119 396
-153 434 -66 73 -204 59 -248 -25 -8 -17 -28 -107 -45 -202 -114 -651 -299
-1204 -530 -1584 -161 -264 -393 -511 -637 -677 -145 -98 -373 -202 -573 -259
-414 -120 -1062 -159 -1529 -91 -1043 151 -1767 740 -2213 1800 -50 118 -147
385 -147 403 0 4 46 18 103 31 387 86 759 254 1057 476 131 99 337 298 443
429 201 249 374 568 484 890 49 143 63 222 63 344 0 327 -200 626 -499 747
-141 57 -498 140 -811 188 -194 30 -381 51 -644 72 -224 18 -1012 27 -1211 14z
m483 -4670 c570 -977 1442 -1595 2532 -1794 276 -50 410 -60 780 -61 367 0
520 11 815 60 77 12 142 21 144 19 14 -13 -160 -547 -252 -774 -386 -954 -955
-1687 -1687 -2177 -703 -470 -1583 -704 -2555 -680 -563 15 -1034 105 -1504
289 -1097 430 -1959 1360 -2491 2688 -64 162 -155 419 -149 424 2 2 54 -3 114
-10 881 -102 1738 29 2426 371 705 349 1255 904 1636 1651 l88 172 24 -42 c13
-22 48 -84 79 -136z"/>
<path d="M77310 28129 c-429 -26 -960 -116 -1495 -254 -1412 -363 -2678 -1017
-3595 -1857 -147 -134 -447 -438 -585 -592 -764 -854 -1217 -1687 -1332 -2453
-23 -156 -23 -439 0 -518 44 -148 160 -245 292 -245 69 0 120 25 168 80 45 53
55 95 61 260 22 585 466 1399 1207 2215 142 157 556 568 694 691 774 685 1830
1268 3015 1665 898 301 2081 521 3401 632 l264 22 0 29 c0 27 -5 30 -105 67
-568 210 -1270 301 -1990 258z"/>
<path d="M55545 28114 c-481 -36 -837 -101 -1190 -219 -191 -63 -231 -80 -238
-98 -11 -30 11 -40 109 -48 367 -32 489 -43 734 -70 753 -82 1666 -246 2265
-406 725 -193 1532 -514 2160 -857 530 -291 1037 -639 1399 -961 443 -395 884
-871 1198 -1295 455 -615 728 -1244 728 -1683 0 -86 4 -110 24 -152 96 -203
367 -171 470 55 64 139 56 459 -20 798 -31 141 -125 426 -189 576 -216 505
-550 1020 -993 1531 -615 708 -1219 1211 -1982 1647 -211 121 -685 357 -910
453 -857 365 -1839 624 -2690 710 -146 15 -753 28 -875 19z"/>
<path d="M8110 17210 c-1179 -63 -2232 -332 -3255 -834 -1704 -835 -3059
-2164 -3936 -3861 -687 -1330 -994 -2828 -898 -4380 93 -1500 552 -2863 1396
-4138 750 -1133 1763 -2079 2953 -2757 1531 -872 3252 -1232 5050 -1054 1753
173 3396 897 4788 2110 178 155 566 540 724 719 277 314 507 611 734 951 754
1127 1204 2317 1368 3619 51 404 60 575 61 1085 0 482 -6 609 -45 970 -186
1710 -895 3300 -2076 4658 -164 189 -587 612 -774 774 -588 511 -1211 929
-1889 1267 -1001 501 -2022 777 -3181 861 -198 15 -819 20 -1020 10z m808
-4654 c426 -57 782 -166 1160 -355 656 -329 1202 -828 1584 -1451 289 -470
459 -981 508 -1528 16 -173 7 -655 -14 -807 -61 -430 -175 -792 -365 -1160
-381 -740 -967 -1320 -1711 -1693 -379 -191 -733 -300 -1165 -359 -204 -28
-713 -25 -935 5 -702 95 -1294 348 -1848 791 -707 565 -1200 1424 -1332 2321
-33 228 -43 398 -37 663 6 270 20 410 68 652 163 829 634 1597 1306 2132 583
465 1249 733 1993 803 149 14 645 5 788 -14z"/>
<path d="M109370 17214 c-427 -23 -616 -41 -925 -85 -1102 -158 -2133 -532
-3125 -1132 -1445 -875 -2590 -2134 -3333 -3667 -664 -1367 -931 -2887 -787
-4465 146 -1591 740 -3081 1751 -4390 998 -1295 2385 -2303 3929 -2857 1352
-484 2925 -604 4399 -333 1497 275 2922 981 4125 2044 191 169 551 531 722
726 1219 1394 1934 3035 2099 4820 37 409 45 1061 15 1430 -93 1175 -368 2169
-875 3170 -856 1688 -2212 3030 -3915 3874 -999 495 -2009 768 -3160 851 -146
11 -799 21 -920 14z m708 -4658 c436 -58 786 -167 1182 -367 691 -350 1262
-897 1640 -1574 221 -394 350 -787 417 -1265 25 -180 25 -741 0 -920 -71 -501
-212 -919 -453 -1336 -544 -945 -1486 -1636 -2512 -1843 -227 -46 -377 -62
-629 -68 -843 -21 -1591 206 -2261 686 -765 547 -1293 1367 -1476 2291 -52
261 -61 371 -61 730 0 350 8 455 56 710 163 863 663 1672 1370 2210 598 456
1223 696 1989 764 114 10 621 -2 738 -18z"/>
<path d="M20955 17093 c-73 -9 -234 -47 -299 -70 -162 -58 -317 -156 -442
-278 -126 -123 -195 -240 -242 -410 -16 -56 -17 -589 -17 -7570 0 -6385 2
-7518 14 -7564 38 -150 114 -278 236 -397 220 -216 514 -342 871 -374 174 -16
2690 -8 2799 9 441 67 776 222 1031 476 150 150 231 285 287 483 l22 77 3
1318 3 1317 157 0 c636 0 1458 62 2067 156 985 151 1791 397 2530 770 942 475
1680 1064 2195 1749 477 635 865 1505 1040 2333 61 290 98 561 126 927 32 427
29 1680 -7 2180 -80 1131 -424 2087 -1016 2825 -127 159 -373 414 -527 547
-1067 918 -2616 1400 -4796 1493 -218 9 -5962 12 -6035 3z m5366 -3983 c1391
-107 2057 -729 2118 -1978 10 -203 -1 -520 -24 -696 -75 -568 -280 -979 -614
-1232 -193 -145 -589 -307 -1004 -409 -495 -121 -854 -148 -1912 -143 l-570 3
-3 2233 -2 2232 938 0 c549 0 994 -4 1073 -10z"/>
<path d="M121085 17084 c-262 -40 -514 -166 -694 -347 -124 -125 -193 -241
-230 -388 -19 -74 -19 -209 -26 -7520 -5 -5133 -4 -7471 3 -7531 23 -183 93
-328 228 -468 194 -202 438 -326 749 -383 120 -22 123 -22 1475 -22 1052 0
1376 3 1450 13 249 34 453 93 636 185 172 86 286 167 415 296 130 131 200 233
248 366 64 177 61 106 61 1530 l0 1295 153 0 c209 0 676 17 947 35 1451 96
2645 383 3615 868 1187 593 2038 1347 2574 2280 436 758 705 1573 800 2422 63
559 74 1450 31 2380 -64 1365 -522 2495 -1339 3305 -939 930 -2356 1473 -4291
1645 -571 50 -421 48 -3675 51 -2557 2 -3054 0 -3130 -12z m5585 -3987 c408
-53 689 -127 948 -252 587 -284 888 -735 989 -1482 24 -176 24 -680 0 -869
-87 -695 -337 -1146 -768 -1387 -250 -139 -739 -300 -1129 -371 -388 -70 -553
-80 -1445 -80 l-770 -1 -3 2233 -2 2233 1022 -4 c897 -3 1040 -5 1158 -20z"/>
</g>
</svg>
